<svg xmlns="http://www.w3.org/2000/svg" xmlns:xlink="http://www.w3.org/1999/xlink" width="70" zoomAndPan="magnify" viewBox="0 0 52.5 30.000001" height="40" preserveAspectRatio="xMidYMid meet" version="1.0"><defs><g/></defs><g fill="#ffffff" fill-opacity="1"><g transform="translate(0.616179, 21.969697)"><g><path d="M 1.09375 -1.4375 C 1.488281 -1.457031 1.785156 -1.503906 1.984375 -1.578125 C 2.191406 -1.660156 2.351562 -1.832031 2.46875 -2.09375 C 2.582031 -2.351562 2.640625 -2.769531 2.640625 -3.34375 L 2.640625 -11.71875 C 2.640625 -12.53125 2.671875 -13.1875 2.734375 -13.6875 L 1.09375 -13.625 L 1.09375 -15.296875 L 7.359375 -15.296875 L 7.359375 -13.859375 C 6.972656 -13.847656 6.675781 -13.800781 6.46875 -13.71875 C 6.269531 -13.632812 6.109375 -13.460938 5.984375 -13.203125 C 5.867188 -12.941406 5.8125 -12.523438 5.8125 -11.953125 L 5.8125 -8.640625 L 7.390625 -8.640625 L 9.078125 -11.5 C 9.773438 -12.71875 10.269531 -13.445312 10.5625 -13.6875 L 10.5625 -13.703125 C 10.238281 -13.671875 9.957031 -13.648438 9.71875 -13.640625 C 9.488281 -13.640625 9.3125 -13.632812 9.1875 -13.625 L 9.1875 -15.296875 L 14.53125 -15.296875 L 14.53125 -13.859375 C 13.90625 -13.828125 13.316406 -13.664062 12.765625 -13.375 C 12.222656 -13.082031 11.679688 -12.5 11.140625 -11.625 L 9.046875 -8.265625 L 9.046875 -8.234375 C 9.597656 -7.898438 10.054688 -7.476562 10.421875 -6.96875 L 12.671875 -3.796875 C 13.753906 -2.273438 14.710938 -1.488281 15.546875 -1.4375 L 15.546875 0 L 12.171875 0 C 12.015625 -0.0078125 11.695312 -0.265625 11.21875 -0.765625 C 10.75 -1.273438 10.351562 -1.765625 10.03125 -2.234375 L 7.875 -5.375 C 7.664062 -5.664062 7.441406 -5.957031 7.203125 -6.25 C 6.972656 -6.539062 6.769531 -6.753906 6.59375 -6.890625 L 5.8125 -6.890625 L 5.8125 -3.578125 C 5.8125 -2.765625 5.785156 -2.113281 5.734375 -1.625 C 6.191406 -1.664062 6.734375 -1.6875 7.359375 -1.6875 L 7.359375 0 L 1.09375 0 Z M 1.09375 -1.4375 "/></g></g></g><g fill="#ffffff" fill-opacity="1"><g transform="translate(16.175942, 21.969697)"><g><path d="M 0.890625 -1.421875 C 1.453125 -1.421875 1.804688 -1.570312 1.953125 -1.875 C 2.109375 -2.1875 2.1875 -2.679688 2.1875 -3.359375 L 2.1875 -7.03125 C 2.1875 -7.6875 2.210938 -8.304688 2.265625 -8.890625 L 0.75 -8.828125 L 0.75 -10.5 C 1.664062 -10.5 2.40625 -10.5625 2.96875 -10.6875 C 3.539062 -10.820312 3.921875 -10.972656 4.109375 -11.140625 L 5.1875 -11.140625 C 5.207031 -10.929688 5.222656 -10.648438 5.234375 -10.296875 C 5.253906 -9.941406 5.265625 -9.597656 5.265625 -9.265625 L 5.3125 -9.265625 C 6.300781 -10.609375 7.347656 -11.28125 8.453125 -11.28125 C 9.015625 -11.28125 9.472656 -11.125 9.828125 -10.8125 C 10.179688 -10.507812 10.359375 -10.0625 10.359375 -9.46875 C 10.359375 -9.082031 10.234375 -8.726562 9.984375 -8.40625 C 9.742188 -8.09375 9.375 -7.9375 8.875 -7.9375 C 8.507812 -7.9375 8.179688 -8.03125 7.890625 -8.21875 C 7.609375 -8.40625 7.445312 -8.734375 7.40625 -9.203125 C 7 -9.203125 6.582031 -8.960938 6.15625 -8.484375 C 5.726562 -8.015625 5.441406 -7.546875 5.296875 -7.078125 L 5.296875 -3.515625 C 5.296875 -2.816406 5.265625 -2.175781 5.203125 -1.59375 C 5.671875 -1.632812 6.144531 -1.65625 6.625 -1.65625 L 6.625 0 L 0.890625 0 Z M 0.890625 -1.421875 "/></g></g></g><g fill="#ffffff" fill-opacity="1"><g transform="translate(26.665671, 21.969697)"><g><path d="M 5.21875 0.34375 C 2.945312 0.34375 1.8125 -1.050781 1.8125 -3.84375 L 1.859375 -9.109375 L 0.375 -9.109375 L 0.375 -10.9375 C 0.84375 -10.9375 1.28125 -11.078125 1.6875 -11.359375 C 2.101562 -11.648438 2.457031 -12.007812 2.75 -12.4375 C 3.039062 -12.863281 3.242188 -13.269531 3.359375 -13.65625 L 4.984375 -13.65625 L 4.96875 -10.9375 L 7.734375 -10.9375 L 7.734375 -9.25 L 4.96875 -9.1875 L 4.9375 -3.796875 C 4.9375 -2.390625 5.375 -1.6875 6.25 -1.6875 C 6.945312 -1.6875 7.609375 -2.125 8.234375 -3 L 9.296875 -2.015625 C 8.609375 -1.003906 7.921875 -0.359375 7.234375 -0.078125 C 6.546875 0.203125 5.875 0.34375 5.21875 0.34375 Z M 5.21875 0.34375 "/></g></g></g><g fill="#ffffff" fill-opacity="1"><g transform="translate(35.691205, 21.969697)"><g><path d="M 5.921875 0.34375 C 5.296875 0.34375 4.679688 0.265625 4.078125 0.109375 C 3.484375 -0.046875 3.019531 -0.25 2.6875 -0.5 L 2.671875 -0.5 L 2.734375 0.15625 L 1.078125 0.15625 L 0.984375 -3.609375 L 2.40625 -3.609375 C 2.476562 -2.929688 2.832031 -2.363281 3.46875 -1.90625 C 4.101562 -1.445312 4.878906 -1.21875 5.796875 -1.21875 C 6.203125 -1.21875 6.550781 -1.3125 6.84375 -1.5 C 7.144531 -1.695312 7.296875 -1.96875 7.296875 -2.3125 C 7.296875 -2.570312 7.203125 -2.789062 7.015625 -2.96875 C 6.828125 -3.144531 6.601562 -3.289062 6.34375 -3.40625 C 6.082031 -3.519531 5.554688 -3.734375 4.765625 -4.046875 C 3.828125 -4.410156 3.125 -4.707031 2.65625 -4.9375 C 2.195312 -5.175781 1.78125 -5.523438 1.40625 -5.984375 C 1.039062 -6.441406 0.859375 -7.035156 0.859375 -7.765625 C 0.859375 -8.359375 1.003906 -8.921875 1.296875 -9.453125 C 1.597656 -9.984375 2.054688 -10.421875 2.671875 -10.765625 C 3.296875 -11.109375 4.0625 -11.28125 4.96875 -11.28125 C 5.382812 -11.28125 5.835938 -11.210938 6.328125 -11.078125 C 6.828125 -10.953125 7.242188 -10.769531 7.578125 -10.53125 L 7.609375 -10.53125 L 7.578125 -11.171875 L 9.25 -11.171875 L 9.25 -7.296875 L 7.828125 -7.296875 C 7.691406 -8.054688 7.351562 -8.65625 6.8125 -9.09375 C 6.28125 -9.53125 5.617188 -9.75 4.828125 -9.75 C 4.421875 -9.75 4.078125 -9.65625 3.796875 -9.46875 C 3.523438 -9.28125 3.390625 -8.988281 3.390625 -8.59375 C 3.390625 -8.1875 3.546875 -7.882812 3.859375 -7.6875 C 4.179688 -7.488281 4.722656 -7.265625 5.484375 -7.015625 C 5.578125 -7.003906 5.769531 -6.945312 6.0625 -6.84375 C 7.289062 -6.40625 8.238281 -5.894531 8.90625 -5.3125 C 9.570312 -4.726562 9.90625 -3.960938 9.90625 -3.015625 C 9.90625 -2.285156 9.71875 -1.671875 9.34375 -1.171875 C 8.96875 -0.671875 8.476562 -0.289062 7.875 -0.03125 C 7.269531 0.21875 6.617188 0.34375 5.921875 0.34375 Z M 5.921875 0.34375 "/></g></g></g><g fill="#ffffff" fill-opacity="1"><g transform="translate(46.290199, 21.969697)"><g><path d="M 2.578125 0.34375 C 2.109375 0.34375 1.722656 0.179688 1.421875 -0.140625 C 1.117188 -0.472656 0.96875 -0.878906 0.96875 -1.359375 C 0.96875 -1.828125 1.125 -2.226562 1.4375 -2.5625 C 1.757812 -2.894531 2.132812 -3.0625 2.5625 -3.0625 C 3.007812 -3.0625 3.378906 -2.894531 3.671875 -2.5625 C 3.972656 -2.226562 4.125 -1.828125 4.125 -1.359375 C 4.125 -0.878906 3.984375 -0.472656 3.703125 -0.140625 C 3.421875 0.179688 3.046875 0.34375 2.578125 0.34375 Z M 2.578125 0.34375 "/></g></g></g></svg>